<?xml version="1.0" encoding="UTF-8" standalone="no"?>
<svg
   width="256"
   height="256"
   viewBox="0 0 192 192"
   version="1.1"
   id="svg100"
   xmlns="http://www.w3.org/2000/svg"
   xmlns:svg="http://www.w3.org/2000/svg">
  <defs
     id="defs104" />
  <g
     id="surface1"
     transform="matrix(1.3563662,0,0,1.3563662,-319.6546,-432.29934)">
    <path
       style="fill:#ffffff;fill-opacity:1;fill-rule:nonzero;stroke:none"
       d="M 361.86328,428.28125 342.90625,439.22656 337.25,439.5 l -5.33594,6.07031 -18.96094,10.94922 -6.07812,0.85547 -60.25,-32.875 0.125,-69.875 59.625,-34.875 4.35937,1.44141 19.62891,11.33203 2.26172,3.22656 5.99219,1.53906 19.6289,11.33594 6.7461,5.85547 -1.36719,69.76953 -1.76172,4.03125"
       id="path95" />
    <path
       style="fill:#ee3f33;fill-opacity:1;fill-rule:nonzero;stroke:none"
       d="m 292.62891,355.40234 c -0.48047,0.95703 0.0937,1.90625 1.71875,2.84375 1.59765,0.92188 3.20312,1.23047 4.82421,0.9336 1.64844,-0.28125 4.00391,-1.30469 7.03907,-3.07032 l 32.40625,-18.82031 -8.25391,-4.76562 -32.40625,18.82031 c -2.81641,1.63672 -4.59375,2.98828 -5.32812,4.05859 z m -12.60547,37.79688 c -0.47657,-0.89453 -1.02735,-1.71094 -1.67188,-2.4375 -0.64062,-0.73438 -1.33984,-1.32422 -2.09375,-1.75781 -1.58594,-0.91407 -2.875,-0.9961 -3.86328,-0.23438 -0.98828,0.76172 -1.48047,2.17578 -1.48828,4.24609 l 10.60547,6.1211 c 0,-1.03516 -0.125,-2.0586 -0.39063,-3.07422 -0.26172,-1.01172 -0.6289,-1.97266 -1.09765,-2.86328 z m 78.22265,-44.57422 -2.86718,1.65234 -31.49219,18.30469 c -2.08985,1.21484 -4.15235,2.21484 -6.19531,3.00391 -2.03516,0.78515 -4.10547,1.36328 -6.22266,1.74218 -2.10938,0.37891 -4.3125,0.56641 -6.61328,0.5586 -2.29688,-0.008 -4.72266,-0.19922 -7.26563,-0.57031 -6.77734,-1.04688 -12.89062,-3.14454 -18.33984,-6.29297 -5.51172,-3.1836 -9.15625,-6.71485 -10.92969,-10.60157 -0.68359,-1.49609 -1.04297,-2.90234 -1.07422,-4.22265 -0.0312,-1.32422 0.27344,-2.60156 0.9375,-3.83594 0.66016,-1.23047 1.66407,-2.44141 3.01953,-3.62109 1.35157,-1.1836 3.07422,-2.38282 5.16407,-3.59766 l 34.36718,-19.95312 -4.28906,-2.47266 -61.29297,35.38672 v 70.78125 l 61.29297,35.38672 6.50781,-3.75391 -0.0625,-23.26562 -0.0976,0.0586 -0.0508,-17.57813 0.0976,-0.0547 -0.0273,-10.04297 c -0.0234,-7.13281 2.53906,-14.56641 7.69141,-22.33203 4.76562,-7.17578 10.33203,-12.60157 16.6875,-16.26953 6.35937,-3.67188 11.9414,-4.67969 16.73437,-3.02735 5.17578,1.80078 7.77344,6.26172 7.79297,13.39063 l 0.0117,4.44531 -18.95703,10.94531 -0.0117,-4.4414 c -0.004,-0.8711 -0.14844,-1.61329 -0.4375,-2.23047 -0.28516,-0.61328 -0.66797,-1.07032 -1.15625,-1.36719 -0.48828,-0.29688 -1.07422,-0.41406 -1.75391,-0.34766 -0.67578,0.0625 -1.39062,0.3125 -2.14062,0.7461 -1.51172,0.87109 -2.82032,2.26172 -3.91407,4.16406 -1.0664,1.85156 -1.59375,3.63672 -1.58984,5.37891 l 0.0312,10.03906 6.78516,-3.91797 0.0469,17.57812 -6.78125,3.91797 0.0625,23.26172 10.99219,-6.34375 -0.11719,-40.83984 18.95703,-10.94922 0.11719,40.84375 5.87891,-3.39453 V 354.10547 Z M 304,426.32422 270.65625,407.70703 c 0.25,6.48047 2.01953,10.67188 5.30859,12.57031 2.56641,1.48438 4.25391,1.02344 5.05469,-1.40234 l 22.22656,13.35547 c -1.60937,6.80469 -4.71484,10.83594 -9.32031,12.08594 -4.60156,1.2539 -10.60937,-0.26563 -18.01562,-4.54297 -8.79297,-5.07422 -15.67188,-12.05078 -20.66407,-20.94922 -4.94922,-8.95703 -7.40625,-18.71485 -7.375,-29.26563 0.0312,-10.71875 2.72266,-17.91406 8.08985,-21.58984 5.36328,-3.70703 12.26953,-3.12891 20.71484,1.74609 8.39063,4.84375 15.07031,12.00782 20.04297,21.48438 4.96875,9.51562 7.4375,19.7539 7.40234,30.71875 L 304,426.32422"
       id="path97" />
  </g>
</svg>
